<svg xmlns="http://www.w3.org/2000/svg" version="1.1" xmlns:xlink="http://www.w3.org/1999/xlink" xmlns:svgjs="http://svgjs.dev/svgjs" width="1440" height="560" preserveAspectRatio="none" viewBox="0 0 1440 560"><g mask="url(&quot;#SvgjsMask1015&quot;)" fill="none"><rect width="1440" height="560" x="0" y="0" fill="rgba(24, 24, 27, 1)"></rect><path d="M878 395L877 202" stroke-width="8" stroke="url(&quot;#SvgjsLinearGradient1016&quot;)" stroke-linecap="round" class="Down"></path><path d="M369 357L368 143" stroke-width="10" stroke="url(&quot;#SvgjsLinearGradient1017&quot;)" stroke-linecap="round" class="Up"></path><path d="M287 377L286 214" stroke-width="8" stroke="url(&quot;#SvgjsLinearGradient1016&quot;)" stroke-linecap="round" class="Down"></path><path d="M1127 149L1126 -4" stroke-width="6" stroke="url(&quot;#SvgjsLinearGradient1017&quot;)" stroke-linecap="round" class="Up"></path><path d="M918 386L917 241" stroke-width="8" stroke="url(&quot;#SvgjsLinearGradient1016&quot;)" stroke-linecap="round" class="Down"></path><path d="M137 409L136 740" stroke-width="6" stroke="url(&quot;#SvgjsLinearGradient1017&quot;)" stroke-linecap="round" class="Up"></path><path d="M777 410L776 747" stroke-width="6" stroke="url(&quot;#SvgjsLinearGradient1017&quot;)" stroke-linecap="round" class="Up"></path><path d="M242 71L241 -229" stroke-width="6" stroke="url(&quot;#SvgjsLinearGradient1017&quot;)" stroke-linecap="round" class="Up"></path><path d="M1326 555L1325 823" stroke-width="8" stroke="url(&quot;#SvgjsLinearGradient1016&quot;)" stroke-linecap="round" class="Down"></path><path d="M366 330L365 56" stroke-width="8" stroke="url(&quot;#SvgjsLinearGradient1016&quot;)" stroke-linecap="round" class="Down"></path><path d="M1425 404L1424 784" stroke-width="8" stroke="url(&quot;#SvgjsLinearGradient1017&quot;)" stroke-linecap="round" class="Up"></path><path d="M264 207L263 -212" stroke-width="6" stroke="url(&quot;#SvgjsLinearGradient1017&quot;)" stroke-linecap="round" class="Up"></path><path d="M992 313L991 515" stroke-width="8" stroke="url(&quot;#SvgjsLinearGradient1017&quot;)" stroke-linecap="round" class="Up"></path><path d="M761 218L760 33" stroke-width="6" stroke="url(&quot;#SvgjsLinearGradient1017&quot;)" stroke-linecap="round" class="Up"></path><path d="M14 463L13 854" stroke-width="6" stroke="url(&quot;#SvgjsLinearGradient1016&quot;)" stroke-linecap="round" class="Down"></path><path d="M657 304L656 566" stroke-width="8" stroke="url(&quot;#SvgjsLinearGradient1017&quot;)" stroke-linecap="round" class="Up"></path><path d="M1179 137L1178 330" stroke-width="10" stroke="url(&quot;#SvgjsLinearGradient1017&quot;)" stroke-linecap="round" class="Up"></path><path d="M269 365L268 -14" stroke-width="10" stroke="url(&quot;#SvgjsLinearGradient1017&quot;)" stroke-linecap="round" class="Up"></path><path d="M1019 84L1018 361" stroke-width="6" stroke="url(&quot;#SvgjsLinearGradient1016&quot;)" stroke-linecap="round" class="Down"></path><path d="M946 519L945 218" stroke-width="10" stroke="url(&quot;#SvgjsLinearGradient1016&quot;)" stroke-linecap="round" class="Down"></path><path d="M1056 556L1055 406" stroke-width="10" stroke="url(&quot;#SvgjsLinearGradient1017&quot;)" stroke-linecap="round" class="Up"></path><path d="M656 308L655 -102" stroke-width="6" stroke="url(&quot;#SvgjsLinearGradient1017&quot;)" stroke-linecap="round" class="Up"></path><path d="M263 66L262 454" stroke-width="8" stroke="url(&quot;#SvgjsLinearGradient1016&quot;)" stroke-linecap="round" class="Down"></path><path d="M214 502L213 130" stroke-width="10" stroke="url(&quot;#SvgjsLinearGradient1016&quot;)" stroke-linecap="round" class="Down"></path><path d="M950 50L949 -120" stroke-width="8" stroke="url(&quot;#SvgjsLinearGradient1017&quot;)" stroke-linecap="round" class="Up"></path><path d="M797 290L796 -49" stroke-width="10" stroke="url(&quot;#SvgjsLinearGradient1017&quot;)" stroke-linecap="round" class="Up"></path><path d="M380 545L379 316" stroke-width="6" stroke="url(&quot;#SvgjsLinearGradient1017&quot;)" stroke-linecap="round" class="Up"></path><path d="M1424 324L1423 703" stroke-width="8" stroke="url(&quot;#SvgjsLinearGradient1016&quot;)" stroke-linecap="round" class="Down"></path><path d="M1283 261L1282 -114" stroke-width="8" stroke="url(&quot;#SvgjsLinearGradient1017&quot;)" stroke-linecap="round" class="Up"></path><path d="M868 539L867 840" stroke-width="6" stroke="url(&quot;#SvgjsLinearGradient1017&quot;)" stroke-linecap="round" class="Up"></path><path d="M93 477L92 776" stroke-width="6" stroke="url(&quot;#SvgjsLinearGradient1017&quot;)" stroke-linecap="round" class="Up"></path><path d="M1109 199L1108 -139" stroke-width="8" stroke="url(&quot;#SvgjsLinearGradient1017&quot;)" stroke-linecap="round" class="Up"></path><path d="M1218 509L1217 811" stroke-width="6" stroke="url(&quot;#SvgjsLinearGradient1016&quot;)" stroke-linecap="round" class="Down"></path><path d="M531 327L530 -17" stroke-width="8" stroke="url(&quot;#SvgjsLinearGradient1016&quot;)" stroke-linecap="round" class="Down"></path><path d="M912 261L911 617" stroke-width="8" stroke="url(&quot;#SvgjsLinearGradient1017&quot;)" stroke-linecap="round" class="Up"></path><path d="M469 519L468 811" stroke-width="6" stroke="url(&quot;#SvgjsLinearGradient1017&quot;)" stroke-linecap="round" class="Up"></path></g><defs><mask id="SvgjsMask1015"><rect width="1440" height="560" fill="#ffffff"></rect></mask><linearGradient x1="0%" y1="0%" x2="0%" y2="100%" id="SvgjsLinearGradient1016"><stop stop-color="rgba(51, 203, 148, 0)" offset="0"></stop><stop stop-color="rgba(51, 203, 148, 0.2)" offset="1"></stop></linearGradient><linearGradient x1="0%" y1="100%" x2="0%" y2="0%" id="SvgjsLinearGradient1017"><stop stop-color="rgba(51, 203, 148, 0)" offset="0"></stop><stop stop-color="rgba(51, 203, 148, 0.2)" offset="1"></stop></linearGradient></defs></svg>