<?xml version="1.0" standalone="no"?>
<!DOCTYPE svg PUBLIC "-//W3C//DTD SVG 20010904//EN"
 "http://www.w3.org/TR/2001/REC-SVG-20010904/DTD/svg10.dtd">
<svg version="1.0" xmlns="http://www.w3.org/2000/svg"
 width="934.000000pt" height="934.000000pt" viewBox="0 0 934.000000 934.000000"
 preserveAspectRatio="xMidYMid meet">
<metadata>
Created by potrace 1.14, written by Peter Selinger 2001-2017
</metadata>
<g transform="translate(0.000000,934.000000) scale(0.100000,-0.100000)"
fill="#000000" stroke="none">
<path d="M0 4670 l0 -4670 4670 0 4670 0 0 4670 0 4670 -4670 0 -4670 0 0
-4670z m3632 1000 l298 0 -4 -67 -5 -68 -63 -6 c-35 -4 -217 -7 -405 -8 l-343
-1 0 -34 0 -34 106 -7 c58 -4 221 -6 362 -4 l257 4 -3 -65 c-2 -36 -7 -68 -11
-73 -4 -4 -152 -7 -330 -7 -177 -1 -336 -3 -352 -7 -25 -5 -29 -10 -29 -39 l0
-34 213 -2 c116 -2 307 -1 423 1 l211 3 7 -72 c3 -39 4 -75 1 -79 -6 -11 -855
-22 -980 -13 l-100 7 1 155 c0 85 1 221 2 302 l2 148 188 3 c103 2 203 2 222
0 19 -1 169 -3 332 -3z m-2054 -72 l-3 -73 -188 -5 -188 -5 -2 -225 -2 -225
-112 -3 -113 -3 0 229 c0 211 -1 229 -17 229 -10 -1 -96 0 -190 1 l-173 2 0
75 0 75 495 0 496 0 -3 -72z m352 -35 l0 -108 243 -3 c133 -2 268 0 299 3 l57
7 3 101 3 102 111 3 111 3 6 -206 c3 -113 3 -251 0 -305 l-6 -100 -98 0 c-53
0 -104 -3 -113 -6 -14 -5 -16 9 -16 121 l0 128 -152 -6 c-83 -4 -218 -7 -301
-7 l-149 0 4 -112 3 -113 -95 -5 c-52 -3 -105 -4 -117 -2 l-23 4 0 282 c0 154
3 291 6 304 6 21 11 22 115 22 l109 0 0 -107z m-352 -677 l-3 -71 -190 -3
-190 -2 0 -228 0 -227 -112 -3 -113 -3 0 231 0 230 -190 0 -190 0 0 75 0 75
468 2 c257 2 480 1 495 -1 l28 -3 -3 -72z m1160 15 c2 -35 -2 -69 -7 -74 -6
-6 -156 -11 -408 -11 l-398 -1 3 -35 c2 -19 6 -37 8 -40 3 -2 163 -4 357 -5
l352 0 0 -63 c0 -42 -5 -66 -14 -71 -7 -5 -167 -9 -354 -10 -187 -1 -344 -4
-349 -7 -4 -3 -8 -21 -8 -40 l0 -34 218 -2 c119 -2 310 -1 425 1 201 3 207 3
207 -16 0 -11 3 -47 6 -80 l7 -60 -400 -7 c-220 -4 -463 -4 -541 0 l-142 7 0
303 c0 232 3 304 13 307 6 3 239 5 517 4 l505 -2 3 -64z m631 -32 c74 -49 138
-89 143 -89 5 0 43 24 86 53 42 30 105 71 140 92 l62 38 154 4 c90 2 157 0
160 -5 3 -6 -39 -38 -95 -73 -55 -35 -124 -81 -152 -102 -29 -21 -82 -57 -119
-79 -38 -22 -68 -42 -68 -44 0 -2 86 -61 191 -132 241 -160 249 -165 249 -174
0 -5 -76 -8 -168 -8 l-169 0 -134 95 c-73 52 -137 95 -142 95 -5 0 -71 -43
-148 -95 l-139 -95 -155 0 c-85 0 -155 4 -155 8 0 5 95 73 210 152 116 78 210
146 210 150 0 4 -96 72 -214 151 -118 79 -212 147 -209 151 2 5 77 5 166 2
l162 -7 134 -88z m4031 -595 c65 -11 117 -27 164 -50 72 -36 146 -89 146 -105
0 -12 -62 -42 -142 -68 l-68 -23 -41 36 c-67 57 -215 83 -379 67 -82 -9 -118
-18 -166 -41 -76 -37 -95 -58 -101 -113 -9 -79 39 -123 167 -154 177 -42 435
-8 511 68 l20 20 105 -38 c57 -21 104 -41 104 -44 0 -4 -17 -23 -37 -43 -72
-71 -213 -120 -416 -147 -166 -21 -387 15 -530 87 -72 37 -121 87 -151 153
-24 55 -26 65 -17 121 16 99 55 144 176 209 154 82 399 106 655 65z m-3625
-17 c119 -28 193 -67 262 -138 52 -54 63 -83 63 -161 0 -149 -106 -241 -353
-305 -139 -36 -331 -38 -452 -5 -78 22 -216 93 -263 136 -93 84 -100 236 -16
335 57 66 184 127 316 151 73 13 370 4 443 -13z m-2306 -5 c118 -26 181 -90
181 -185 0 -93 -42 -147 -147 -187 -50 -19 -88 -24 -268 -31 -115 -4 -256 -5
-312 -2 l-102 6 -3 -99 -3 -99 -112 -3 -113 -3 0 305 0 305 63 3 c168 8 766 1
816 -10z m3779 -169 c-3 -169 -6 -192 -25 -228 -34 -63 -101 -121 -185 -160
-103 -47 -157 -57 -318 -56 -202 1 -312 36 -406 129 -57 57 -80 98 -90 159
l-6 41 73 4 c41 1 91 1 111 -1 34 -3 39 -7 48 -42 13 -47 60 -88 132 -114 63
-24 237 -27 306 -7 56 17 106 62 120 110 7 23 12 105 12 196 l0 156 116 0 116
0 -4 -187z m1160 115 l-3 -73 -185 -8 c-102 -4 -283 -5 -402 -1 l-218 6 0 -41
0 -41 358 -2 357 -3 0 -62 c0 -34 -4 -65 -8 -70 -5 -4 -168 -10 -363 -12
l-354 -3 0 -39 0 -39 218 -2 c119 -2 310 -1 423 1 l207 3 7 -70 c4 -39 4 -76
0 -81 -4 -8 -175 -11 -541 -11 l-534 0 0 303 c0 167 3 307 7 310 3 4 238 7
520 7 l514 0 -3 -72z m2415 63 c4 0 7 -34 5 -73 l-3 -73 -187 -3 -188 -2 -2
-228 -3 -227 -107 -3 -108 -3 -2 228 -3 228 -190 5 -190 5 -3 72 -3 72 73 3
c68 3 893 2 911 -1z m-6144 -11 c50 -14 96 -49 126 -95 23 -35 26 -48 23 -102
-5 -73 -36 -121 -103 -157 -22 -11 -42 -22 -44 -23 -5 -3 105 -171 131 -199
11 -12 16 -23 11 -25 -4 -2 -64 -3 -133 -1 l-125 3 -30 43 c-16 24 -48 69 -69
100 l-39 56 -213 0 -214 0 0 -100 0 -100 -115 0 -115 0 0 305 0 305 438 0
c253 0 451 -4 471 -10z"/>
<path d="M3388 4115 c-59 -17 -154 -64 -174 -87 -9 -9 -18 -34 -21 -57 -12
-86 63 -144 227 -176 73 -15 97 -16 174 -5 152 21 232 56 260 115 39 82 3 139
-121 190 -58 24 -84 28 -183 31 -75 2 -132 -2 -162 -11z"/>
<path d="M810 4057 l0 -55 273 1 c293 2 329 8 335 54 6 41 -24 46 -325 51
l-283 4 0 -55z"/>
<path d="M1996 4101 c-4 -6 -6 -31 -5 -57 l3 -46 270 4 c278 4 317 9 331 46 3
9 -3 25 -15 36 -20 20 -33 21 -299 24 -188 2 -281 0 -285 -7z"/>
</g>
</svg>
